<?xml version="1.0" standalone="no"?>
<!DOCTYPE svg PUBLIC "-//W3C//DTD SVG 20010904//EN"
 "http://www.w3.org/TR/2001/REC-SVG-20010904/DTD/svg10.dtd">
<svg version="1.0" xmlns="http://www.w3.org/2000/svg"
 width="70.000000pt" height="70.000000pt" viewBox="0 0 70.000000 70.000000"
 preserveAspectRatio="xMidYMid meet">
<metadata>
Created by potrace 1.11, written by Peter Selinger 2001-2013
</metadata>
<g transform="translate(0.000000,70.000000) scale(0.100000,-0.100000)"
fill="#000000" stroke="none">
<path d="M232 673 c-23 -4 -23 -5 -5 -20 10 -8 12 -12 6 -8 -7 3 -13 0 -13 -7
0 -10 -2 -10 -9 1 -7 11 -10 9 -16 -8 -5 -18 -9 -20 -18 -9 -7 7 -11 12 -10
10 4 -9 -23 -29 -31 -24 -5 3 -7 -2 -3 -11 3 -9 0 -18 -9 -21 -10 -4 -12 -2
-8 6 4 7 3 8 -4 4 -6 -4 -8 -14 -5 -24 6 -15 4 -15 -9 -4 -14 11 -16 10 -11
-9 5 -18 3 -21 -11 -16 -10 4 -15 3 -11 -3 3 -5 -3 -18 -14 -29 -16 -16 -17
-20 -5 -25 8 -3 12 -2 9 3 -3 5 -1 12 4 15 14 9 7 -22 -9 -37 -7 -6 -10 -7 -7
-1 3 6 1 11 -6 11 -9 0 -13 -31 -15 -109 -3 -93 -1 -108 12 -108 10 0 16 -8
15 -22 -1 -17 -2 -19 -6 -6 -2 10 -9 18 -14 18 -6 0 -6 -7 0 -17 17 -30 38
-53 46 -53 5 0 1 8 -8 18 -12 13 -13 21 -6 32 9 13 10 13 6 -1 -3 -9 0 -22 6
-28 6 -6 12 -21 14 -33 2 -12 10 -26 18 -31 8 -4 32 -23 52 -42 20 -18 42 -31
47 -27 6 3 4 -2 -4 -13 -14 -16 -13 -17 8 -11 17 6 21 4 16 -7 -4 -13 15 -15
119 -16 78 -1 128 2 132 9 3 5 11 10 16 10 6 0 7 -5 3 -12 -4 -7 -3 -8 5 -4 9
6 9 11 1 21 -8 10 -8 15 1 21 7 4 9 3 6 -3 -4 -7 3 -10 17 -9 13 0 22 4 19 9
-2 4 1 7 6 7 6 0 11 5 11 11 0 5 -4 7 -10 4 -16 -10 -11 1 7 16 10 8 14 9 10
2 -4 -6 -3 -14 3 -18 5 -3 10 -1 10 5 0 6 4 8 10 5 6 -3 7 1 4 9 -4 9 -1 16 6
16 7 0 10 7 6 17 -4 10 -4 14 0 10 4 -4 13 1 21 11 12 16 13 16 8 -3 -3 -11 1
-6 9 10 8 17 20 30 28 30 10 0 14 33 16 151 3 136 1 152 -15 165 -16 13 -17
13 -4 -4 8 -9 11 -20 7 -24 -3 -3 -6 -1 -6 6 0 7 -4 10 -8 7 -4 -2 -9 5 -9 17
-1 12 -7 23 -13 25 -5 2 -10 12 -10 23 0 18 -4 20 -40 23 -8 1 -14 9 -12 17 3
23 -24 42 -49 36 -17 -5 -18 -3 -7 10 12 15 10 15 -12 3 -23 -12 -24 -12 -12
3 8 9 11 20 8 25 -5 9 -233 13 -274 5z m268 -15 c0 -11 -22 -10 -39 1 -10 7
-7 9 12 8 15 -1 27 -5 27 -9z m177 -447 c0 -11 -5 -18 -9 -15 -4 3 -5 11 -1
19 7 21 12 19 10 -4z"/>
<path d="M585 590 c-3 -6 1 -7 9 -4 18 7 21 14 7 14 -6 0 -13 -4 -16 -10z"/>
<path d="M106 107 c3 -10 9 -15 12 -12 3 3 0 11 -7 18 -10 9 -11 8 -5 -6z"/>
<path d="M130 91 c0 -10 39 -45 44 -40 3 2 -6 14 -20 26 -13 12 -24 18 -24 14z"/>
</g>
</svg>
